<?xml version="1.0" encoding="UTF-8" standalone="no"?>
<!DOCTYPE svg PUBLIC "-//W3C//DTD SVG 1.1//EN"
 "http://www.w3.org/Graphics/SVG/1.1/DTD/svg11.dtd">
<!-- Generated by graphviz version 2.38.0 (20140413.2041)
 -->
<!-- Title: G Pages: 1 -->
<svg width="386pt" height="152pt"
 viewBox="0.00 0.00 386.00 152.00" xmlns="http://www.w3.org/2000/svg" xmlns:xlink="http://www.w3.org/1999/xlink">
<g id="graph0" class="graph" transform="scale(1 1) rotate(0) translate(4 148)">
<title>G</title>
<polygon fill="white" stroke="none" points="-4,4 -4,-148 382,-148 382,4 -4,4"/>
<!-- A -->
<g id="node1" class="node"><title>A</title>
<polygon fill="lightgray" stroke="black" points="126,-144 72,-144 72,-108 126,-108 126,-144"/>
<text text-anchor="middle" x="99" y="-122.3" font-family="Times,serif" font-size="14.00">A</text>
</g>
<!-- q -->
<g id="node7" class="node"><title>q</title>
<ellipse fill="none" stroke="black" cx="18" cy="-72" rx="18" ry="18"/>
<text text-anchor="middle" x="18" y="-68.3" font-family="Times,serif" font-size="14.00">q</text>
</g>
<!-- A&#45;&gt;q -->
<g id="edge5" class="edge"><title>A&#45;&gt;q</title>
<path fill="none" stroke="black" d="M71.6941,-108.019C62.034,-101.416 51.1845,-93.9995 41.8523,-87.6205"/>
<polygon fill="black" stroke="black" points="43.689,-84.6365 33.4582,-81.8828 39.7388,-90.4154 43.689,-84.6365"/>
</g>
<!-- B -->
<g id="node2" class="node"><title>B</title>
<polygon fill="lightgray" stroke="black" points="378,-90 324,-90 324,-54 378,-54 378,-90"/>
<text text-anchor="middle" x="351" y="-68.3" font-family="Times,serif" font-size="14.00">B</text>
</g>
<!-- z -->
<g id="node4" class="node"><title>z</title>
<ellipse fill="none" stroke="black" cx="261" cy="-72" rx="18" ry="18"/>
<text text-anchor="middle" x="261" y="-68.3" font-family="Times,serif" font-size="14.00">z</text>
</g>
<!-- B&#45;&gt;z -->
<g id="edge6" class="edge"><title>B&#45;&gt;z</title>
<path fill="none" stroke="black" d="M323.597,-72C312.814,-72 300.342,-72 289.453,-72"/>
<polygon fill="black" stroke="black" points="289.212,-68.5001 279.212,-72 289.212,-75.5001 289.212,-68.5001"/>
</g>
<!-- C -->
<g id="node3" class="node"><title>C</title>
<polygon fill="lightgray" stroke="black" points="288,-36 234,-36 234,-0 288,-0 288,-36"/>
<text text-anchor="middle" x="261" y="-14.3" font-family="Times,serif" font-size="14.00">C</text>
</g>
<!-- zz -->
<g id="node8" class="node"><title>zz</title>
<ellipse fill="none" stroke="black" cx="180" cy="-18" rx="18" ry="18"/>
<text text-anchor="middle" x="180" y="-14.3" font-family="Times,serif" font-size="14.00">z&#39;</text>
</g>
<!-- C&#45;&gt;zz -->
<g id="edge7" class="edge"><title>C&#45;&gt;zz</title>
<path fill="none" stroke="black" d="M233.694,-18C225.58,-18 216.626,-18 208.438,-18"/>
<polygon fill="black" stroke="black" points="208.248,-14.5001 198.248,-18 208.248,-21.5001 208.248,-14.5001"/>
</g>
<!-- y -->
<g id="node5" class="node"><title>y</title>
<ellipse fill="none" stroke="black" cx="180" cy="-72" rx="18" ry="18"/>
<text text-anchor="middle" x="180" y="-68.3" font-family="Times,serif" font-size="14.00">y</text>
</g>
<!-- z&#45;&gt;y -->
<g id="edge1" class="edge"><title>z&#45;&gt;y</title>
<path fill="none" stroke="black" d="M242.858,-72C232.713,-72 219.634,-72 208.117,-72"/>
<polygon fill="black" stroke="black" points="208.108,-68.5001 198.108,-72 208.108,-75.5001 208.108,-68.5001"/>
</g>
<!-- x -->
<g id="node6" class="node"><title>x</title>
<ellipse fill="none" stroke="black" cx="99" cy="-72" rx="18" ry="18"/>
<text text-anchor="middle" x="99" y="-68.3" font-family="Times,serif" font-size="14.00">x</text>
</g>
<!-- y&#45;&gt;x -->
<g id="edge2" class="edge"><title>y&#45;&gt;x</title>
<path fill="none" stroke="black" d="M161.858,-72C151.713,-72 138.634,-72 127.117,-72"/>
<polygon fill="black" stroke="black" points="127.108,-68.5001 117.108,-72 127.108,-75.5001 127.108,-68.5001"/>
</g>
<!-- x&#45;&gt;q -->
<g id="edge3" class="edge"><title>x&#45;&gt;q</title>
<path fill="none" stroke="black" d="M80.8582,-72C70.7129,-72 57.6336,-72 46.1168,-72"/>
<polygon fill="black" stroke="black" points="46.1084,-68.5001 36.1084,-72 46.1083,-75.5001 46.1084,-68.5001"/>
</g>
<!-- zz&#45;&gt;x -->
<g id="edge4" class="edge"><title>zz&#45;&gt;x</title>
<path fill="none" stroke="black" d="M164.51,-27.9044C152.817,-35.897 136.157,-47.2849 122.697,-56.4856"/>
<polygon fill="black" stroke="black" points="120.679,-53.6257 114.398,-62.1584 124.629,-59.4047 120.679,-53.6257"/>
</g>
</g>
</svg>
